<svg width="16" height="16" viewBox="0 0 16 16" fill="none" xmlns="http://www.w3.org/2000/svg">
<path d="M9.66671 2.66667H6.33337L4.66671 4.66667H2.66671C2.31309 4.66667 1.97395 4.80715 1.7239 5.0572C1.47385 5.30724 1.33337 5.64638 1.33337 6.00001V12C1.33337 12.3536 1.47385 12.6928 1.7239 12.9428C1.97395 13.1929 2.31309 13.3333 2.66671 13.3333H13.3334C13.687 13.3333 14.0261 13.1929 14.2762 12.9428C14.5262 12.6928 14.6667 12.3536 14.6667 12V6.00001C14.6667 5.64638 14.5262 5.30724 14.2762 5.0572C14.0261 4.80715 13.687 4.66667 13.3334 4.66667H11.3334L9.66671 2.66667Z" stroke="#FAFAFA" stroke-linecap="round" stroke-linejoin="round"/>
<path d="M8.00004 10.6667C9.10461 10.6667 10 9.77124 10 8.66667C10 7.5621 9.10461 6.66667 8.00004 6.66667C6.89547 6.66667 6.00004 7.5621 6.00004 8.66667C6.00004 9.77124 6.89547 10.6667 8.00004 10.6667Z" stroke="#FAFAFA" stroke-linecap="round" stroke-linejoin="round"/>
</svg>
