<svg width="16" height="16" viewBox="0 0 16 16" fill="none" xmlns="http://www.w3.org/2000/svg">
<path d="M9.66658 2.66667H6.33325L4.66659 4.66667H2.66659C2.31296 4.66667 1.97382 4.80714 1.72378 5.05719C1.47373 5.30724 1.33325 5.64638 1.33325 6V12C1.33325 12.3536 1.47373 12.6928 1.72378 12.9428C1.97382 13.1929 2.31296 13.3333 2.66659 13.3333H13.3333C13.6869 13.3333 14.026 13.1929 14.2761 12.9428C14.5261 12.6928 14.6666 12.3536 14.6666 12V6C14.6666 5.64638 14.5261 5.30724 14.2761 5.05719C14.026 4.80714 13.6869 4.66667 13.3333 4.66667H11.3333L9.66658 2.66667Z" stroke="#18181B" stroke-linecap="round" stroke-linejoin="round"/>
<path d="M7.99992 10.6667C9.10449 10.6667 9.99992 9.77124 9.99992 8.66667C9.99992 7.5621 9.10449 6.66667 7.99992 6.66667C6.89535 6.66667 5.99992 7.5621 5.99992 8.66667C5.99992 9.77124 6.89535 10.6667 7.99992 10.6667Z" stroke="#18181B" stroke-linecap="round" stroke-linejoin="round"/>
</svg>
